<svg width="50" height="50" xmlns="http://www.w3.org/2000/svg">

 <g>
  <title>background</title>
  <rect fill="none" id="canvas_background" height="402" width="582" y="-1" x="-1"/>
 </g>
 <g>
  <title>Layer 1</title>
  <g stroke="null" id="surface1">
   <path fill="#ffffff" stroke-width="0" stroke="null" id="svg_1" d="m36.777506,0.275861c-2.421276,0 -4.517859,0.592069 -5.969696,1.17574c-1.424007,-0.432505 -3.784982,-1.171541 -6.619081,-0.638259c-1.651291,0.260343 -3.168066,0.877606 -4.559604,1.822398c-2.291399,-0.99938 -4.684844,-1.612444 -7.194249,-1.713221c-1.544606,-0.109176 -7.838996,0.537481 -10.097924,3.544017c-0.830284,1.184138 -1.660569,2.687406 -2.01773,4.514002c-0.357161,1.612444 -0.357161,3.443239 0.236562,7.205608c0.357161,2.578231 0.834923,4.29985 1.901767,7.843867c0.120601,0.323329 0.714323,2.044948 2.495491,6.777303c0.352523,0.856611 1.066845,2.469054 2.490852,3.972322c0.950884,1.074963 1.901767,1.72162 3.089213,1.72162c1.544608,0 2.611452,-0.965787 3.562336,-2.04075c0.069577,-0.071384 0.143793,-0.151167 0.21337,-0.222551c-0.088131,0.125973 -0.166985,0.264542 -0.21337,0.436704c-0.23656,1.074963 1.187445,1.935772 2.374891,2.364078c0.950885,0.428305 2.01773,0.537481 2.848014,0.537481c1.066845,0 1.901767,-0.214153 2.374891,-0.319129c0.408184,-0.125973 1.289491,-0.470296 2.231098,-1.037171c0.041746,2.746194 0.069577,5.987878 0.143793,6.731113c0.357161,2.796582 1.187445,4.728155 2.732052,5.803117c1.187445,0.860811 3.325774,0.969986 3.446375,0.969986c2.133691,0 5.459465,-1.289115 6.883472,-3.329864c0.714322,-0.969986 0.950884,-1.830796 1.187445,-3.014934c0.236562,-0.642458 0.473122,-4.404827 0.593723,-5.156461c0.162346,-1.188337 0.287584,-2.359878 0.412823,-3.497827c0.783899,0.184759 1.748699,0.382116 2.796991,0.382116c1.897129,0 4.392621,-1.184139 4.865743,-1.402491c0.950884,-0.642458 2.848014,-2.145725 2.01773,-3.434841c-0.473123,-0.755833 -1.187445,-0.755833 -2.968613,-0.537481c0,0 -2.848014,0.319129 -3.089214,0.209953c-0.171623,-0.058786 -0.436015,-0.209953 -0.732876,-0.40731c0.616915,-0.865008 1.164253,-1.721619 1.80436,-2.49005c1.424007,-2.473253 2.25893,-4.409026 2.852652,-5.912294c1.066845,-2.687406 1.660568,-4.84153 2.01309,-6.344798c0.834923,-3.224888 1.071484,-4.728155 0.593723,-6.449775c-0.946246,-3.010735 -4.392619,-5.588965 -5.816626,-6.340599c-0.950884,-0.432505 -3.321136,-1.72162 -6.883472,-1.72162zm0,2.149925c2.968613,0 4.986343,1.074963 6.053188,1.503268c1.308046,0.646657 4.276659,2.796582 4.51322,4.837331c0.120601,1.184138 0.236562,2.368277 -0.593723,5.483988c-0.473122,1.503268 -0.950884,3.43904 -2.022368,6.126447c-0.593723,1.503267 -1.303407,3.334063 -2.727414,5.593164c-0.037108,0.054588 -0.078853,0.113375 -0.115961,0.172162c0.139154,-0.4535 0.236562,-0.818819 0.236562,-0.818819c0.236562,-1.074963 0.236562,-1.935772 0.115961,-3.224888c-0.120599,-0.646657 -0.236562,-2.2591 -0.236562,-2.905758c0,-0.319129 0.352523,-3.653192 0.473123,-4.837331c0.120599,-1.931573 -1.187445,-4.29985 -1.539968,-4.728155c-1.781168,-2.473253 -2.732052,-3.867345 -4.63382,-5.265637c-0.473122,-0.365318 -1.284853,-0.974185 -2.388806,-1.587249c0.87203,-0.193158 1.83683,-0.348523 2.866568,-0.348523zm-10.492194,0.440902c1.549246,0.033593 2.86193,0.419907 3.840644,0.743237c2.495491,0.751633 4.03546,1.931573 4.749782,2.469054c1.544608,1.184138 2.374891,2.368277 4.156059,4.84153c0.129877,0.235148 0.468485,0.734838 0.737515,1.431883c-2.430552,-0.201555 -4.044736,0.571074 -5.014173,1.360499c-1.424007,1.074963 -1.308046,2.687406 -1.187445,3.867345c0,0.860811 0.2412,1.939972 2.022368,5.593164c0.709684,1.612444 1.419368,3.329865 2.133691,4.514003c0.371077,0.667653 0.825645,1.280717 1.312684,1.826597c-0.282947,0.130172 -0.570531,0.298134 -0.839562,0.537481c-0.709684,0.751634 -0.830283,1.507467 -1.066845,2.905758c-0.236562,1.074963 -0.473123,3.329864 -0.593723,5.156461c0,0.751634 -0.352523,4.409025 -0.473123,4.946507c-0.357161,1.074963 -0.47776,1.612444 -0.950884,2.259101c-0.830284,1.179939 -3.441736,2.149925 -4.986343,2.040749c-0.473122,0 -1.187445,0 -1.781168,-0.428305c-1.308045,-0.86081 -1.781168,-2.796583 -1.901767,-4.29985c-0.120601,-1.074963 0,-8.818052 -0.236562,-10.539672c-0.120599,-0.428305 -0.236562,-1.503267 -1.187445,-2.254902c-0.398907,-0.302333 -1.224553,-0.457699 -2.003814,-0.562675c0.009278,-0.361121 0.03247,-0.72224 0.106685,-1.049769c0.115961,-0.646657 0.352523,-0.969986 0.593723,-1.507467c0.115961,-0.319129 0.352523,-0.747434 0.593723,-1.284916c1.066845,-3.010735 0.825645,-6.991455 0.231922,-9.464709c-0.115961,-0.214152 -0.593723,-1.931573 -2.25429,-2.897359c-1.781168,-0.969986 -3.682937,-0.432505 -4.749782,-0.109176c-0.440654,0.109176 -0.876668,0.281338 -1.312684,0.482894c0.074215,-0.449301 0.139154,-0.902801 0.245838,-1.343703c0.473123,-2.149925 0.950885,-3.976522 2.495491,-5.803117c1.660568,-1.830796 3.557698,-3.010736 5.696027,-3.334064c0.565891,-0.079783 1.108592,-0.109175 1.62346,-0.096579zm-14.662167,0.188959c0.278308,-0.0042 0.514869,0 0.69113,0.016796c1.855383,0.08818 3.631913,0.482893 5.394528,1.154744c-0.218008,0.218352 -0.436015,0.436704 -0.644746,0.671852c-2.017729,2.149925 -2.49549,4.404828 -2.968613,6.663928c-0.593723,2.687406 -0.714322,5.479789 -0.2412,8.276372l-0.231922,2.040749c-0.120601,1.074963 -0.3618,3.119911 0.946246,5.269836c0.459208,0.713843 0.964799,1.318509 1.521414,1.834994c-1.205999,1.444481 -2.486214,2.80918 -3.775706,4.077299c-0.714322,0.751634 -1.308045,1.289115 -1.781168,1.289115c-0.120599,0 -0.593723,-0.214153 -1.308045,-0.965787c-1.308046,-1.289114 -1.781168,-2.687406 -2.01773,-3.224888c-1.424007,-3.871544 -2.25429,-6.344797 -2.374891,-6.668127c-0.950884,-3.439039 -1.424007,-5.156461 -1.901767,-7.629714c-0.593723,-3.43904 -0.593723,-5.16066 -0.236562,-6.554752c0.357161,-1.507467 0.950884,-2.691605 1.544606,-3.548216c1.456477,-2.070143 5.454827,-2.658014 7.384426,-2.704203zm27.246306,11.329096c0.380353,0 0.793176,0.041991 1.229191,0.125973c-0.013916,1.003577 -0.473123,4.152882 -0.473123,4.576988c0,0.86081 0.236562,2.578231 0.236562,3.224888c0.120601,1.184139 0.120601,1.826597 0,2.687406c0,0 -0.176261,0.76843 -0.357161,1.314309c-0.551977,-1.12955 -1.164253,-2.477452 -1.901769,-4.001716c-1.781168,-3.653192 -1.897129,-4.404827 -1.897129,-4.942308c0,-0.755833 0,-1.72162 0.709684,-2.149925c0.667938,-0.537481 1.479669,-0.827217 2.453745,-0.835616zm-18.433235,0.314931c0.236562,0.025194 0.45457,0.08818 0.6633,0.193157c0.950884,0.432505 1.187445,1.507467 1.187445,1.507467c0.593723,2.364078 0.830284,5.912294 -0.120601,8.276372c-0.115961,0.428305 -0.352523,0.751634 -0.473122,1.074963c-0.236562,0.537481 -0.473123,1.074963 -0.714323,2.040749c-0.0603,0.398912 -0.08813,0.793625 -0.102045,1.188338c-0.821007,-0.155365 -1.59563,-0.419907 -2.152245,-0.755833c-0.950884,-0.428305 -1.660569,-1.184138 -2.133691,-2.044948c-0.834923,-1.612444 -0.714323,-3.115711 -0.593723,-3.972322l0.231922,-2.477453c-0.166985,-1.209333 -0.245838,-2.422864 -0.227284,-3.627998c0.547339,-0.424106 1.261661,-0.856611 2.249652,-1.100156c0.714323,-0.159565 1.493584,-0.382116 2.184714,-0.302333zm17.510181,0.72224c-0.310777,0.012597 -0.640108,0.062986 -0.816369,0.117574c-0.473123,0.109175 -0.593723,0.109175 -0.714323,0.323328c-0.115961,0.214153 0.2412,0.537481 0.3618,0.751634c0.115961,0 0.473122,0.323328 0.946246,0.218352c0.357161,-0.109176 0.593723,-0.323328 0.714322,-0.432505c0.120601,-0.109175 0.593723,-0.646657 0.236562,-0.86081c-0.120599,-0.109176 -0.417461,-0.13437 -0.728238,-0.117574zm-17.779211,0.781027c-0.129877,0.008399 -0.255116,0.037792 -0.375716,0.09238c-0.115961,0 -0.352523,0.104977 -0.473122,0.319129c-0.120601,0.214153 0,0.428305 0.120599,0.537481c0.236562,0.323328 0.593723,0.646657 1.187445,0.646657c0.120601,0 0.593723,0 0.946246,-0.323328c0,0 0.3618,-0.323328 0.3618,-0.642458c-0.120601,-0.218352 -0.357161,-0.323328 -0.714323,-0.432505c-0.26903,-0.079783 -0.667938,-0.222551 -1.052929,-0.197357zm-2.184714,14.066893c0.728238,0.352722 1.604906,0.638259 2.565067,0.835616c-0.255116,0.461897 -0.621553,0.844013 -0.987991,1.095958c-0.834923,0.537481 -1.901769,0.86081 -2.968613,1.074963c-0.2412,0 -0.357161,0.109175 -0.593723,0.109175c-0.575169,0.146968 -1.131784,0.310732 -1.512138,0.667653c1.164253,-1.171541 2.333145,-2.464856 3.497398,-3.783364zm22.895431,0.86081c0.519507,0.352722 1.029737,0.613065 1.475029,0.751634c0.714323,0.214153 1.308046,0.214153 3.446375,0c-0.357161,0.319129 -1.424007,0.856611 -2.968613,1.074963c-0.99263,0.08818 -2.22646,-0.125973 -3.228367,-0.386315c0.092769,-0.608865 0.199454,-0.957388 0.375715,-1.121153c0.064939,-0.054588 0.459208,-0.163764 0.899862,-0.319129zm-17.881258,0.323328c0.245838,0.037792 0.440654,0.067185 0.477762,0.100778c0.236562,0.218352 0.357161,0.755833 0.357161,0.969986c0.013916,0.184759 0.023192,0.650856 0.03247,0.974185c-0.978715,1.037171 -2.551153,1.612444 -2.885122,1.713221c-0.473122,0.214153 -1.897129,0.428306 -3.321136,0c1.187445,-0.323328 2.374891,-0.642458 3.321136,-1.289115c0.830284,-0.537481 1.544608,-1.394092 2.01773,-2.469054z"/>
  </g>
 </g>
</svg>