<svg xmlns="http://www.w3.org/2000/svg" xmlns:xlink="http://www.w3.org/1999/xlink" xmlns:v="http://vecta.io" width="67" height="65" viewBox="0 0 67 65" ><style><![CDATA[svg{stroke:#000;stroke-linecap:round;stroke-linejoin:round;fill:#fff;fill-rule:evenodd;font-family:Roboto;font-size:14px;text-anchor:middle}svg text{stroke:none}]]></style><g transform="translate(0.5 0.5)"><g ><g transform="translate(0 0)"><path d="M 58.9514 48.2863 C 55.4706 48.2 52.7702 48.5462 50.5069 49.4982 C 49.8552 49.759 48.8094 49.759 48.7235 50.5802 C 49.0718 50.9244 49.1138 51.4877 49.4191 51.9647 C 49.941 52.8305 50.8561 53.9968 51.6824 54.6028 C 52.5975 55.296 53.5116 55.9873 54.4677 56.5932 C 56.1652 57.6306 58.0802 58.2366 59.7338 59.275 C 60.6918 59.8809 61.6489 60.6594 62.6069 61.309 C 63.0849 61.6551 63.3903 62.2184 64 62.4337 L 64 62.3028 C 63.6956 61.915 63.6078 61.3526 63.3044 60.9183 C 62.8683 60.4869 62.4332 60.0961 61.9972 59.6647 C 60.7357 57.9777 59.168 56.506 57.4695 55.296 C 56.0764 54.3439 53.0297 53.0467 52.4639 51.446 L 52.378 51.3588 C 53.3341 51.2715 54.4667 50.9254 55.3808 50.6655 C 56.8617 50.2778 58.21 50.3631 59.7329 49.9743 C 60.4304 49.8007 61.126 49.5845 61.8235 49.3683 L 61.8235 48.9795 C 61.0401 48.201 60.4743 47.1627 59.648 46.4278 C 57.4285 44.5246 54.9896 42.6641 52.4648 41.107 C 51.1156 40.2422 49.3742 39.6789 47.9392 38.945 C 47.4153 38.6851 46.546 38.5552 46.2417 38.1228 C 45.4563 37.1717 45.0222 35.9171 44.4564 34.7915 C 43.195 32.4123 41.9755 29.7742 40.8877 27.2651 C 40.1044 25.5781 39.6244 23.8911 38.6683 22.3341 C 34.1846 14.9802 29.3087 10.5243 21.8221 6.1556 C 20.2124 5.2471 18.2974 4.8574 16.2506 4.3823 C 15.1629 4.3387 14.0751 4.2524 12.9864 4.2088 C 12.2888 3.9063 11.5933 3.0841 10.9835 2.6944 C 8.5026 1.1373 2.1039 -2.2366 0.2747 2.2183 C -0.9009 5.0299 2.0161 7.798 3.017 9.2261 C 3.7584 10.2208 4.7145 11.3454 5.2384 12.4701 C 5.5418 13.205 5.6286 13.9845 5.934 14.763 C 6.6295 16.6662 7.2832 18.7856 8.1973 20.5598 C 8.6753 21.4683 9.1973 22.4203 9.807 23.2425 C 10.1553 23.7185 10.765 23.9347 10.8947 24.7133 C 10.285 25.5791 10.2431 26.8763 9.8948 27.9583 C 8.327 32.8466 8.9368 38.9023 11.1562 42.4925 C 11.8537 43.5735 13.5073 45.9527 15.7277 45.0442 C 17.6867 44.2657 17.2506 41.8002 17.8164 39.6372 C 17.9481 39.1185 17.8603 38.7724 18.1208 38.4263 L 18.1208 38.5125 C 18.7305 39.7235 19.3403 40.8918 19.9061 42.1027 C 21.2553 44.2221 23.6064 46.4287 25.5654 47.8995 C 26.6093 48.678 27.4365 50.0199 28.7419 50.4949 L 28.7419 50.364 L 28.656 50.364 C 28.3946 49.9762 28.0024 49.8027 27.6541 49.4992 C 26.8707 48.7207 26.0005 47.7686 25.3908 46.9038 C 23.5635 44.4819 21.9538 41.7992 20.5168 39.0312 C 19.8193 37.6904 19.2095 36.2196 18.6457 34.8788 C 18.3823 34.3591 18.3823 33.5806 17.9481 33.3217 C 17.2945 34.2728 16.3384 35.0959 15.8575 36.2632 C 15.0302 38.1228 14.9443 40.4157 14.64 42.7949 C 14.4644 42.8386 14.5522 42.7949 14.4644 42.8812 C 13.0732 42.5361 12.5932 41.108 12.0713 39.897 C 10.766 36.8256 10.5475 31.8946 11.6791 28.3471 C 11.9835 27.4386 13.2908 24.5834 12.7688 23.7185 C 12.5054 22.8964 11.6372 22.4213 11.1572 21.7717 C 10.5913 20.9496 9.9836 19.9122 9.5914 19.0037 C 8.5475 16.5809 8.0256 13.8992 6.8929 11.4763 C 6.3691 10.3517 5.4559 9.1834 4.7155 8.146 C 3.8882 6.9777 2.976 6.1556 2.3224 4.7721 C 2.1048 4.296 1.8005 3.5175 2.1487 2.9988 C 2.2346 2.6527 2.4102 2.5228 2.7565 2.4365 C 3.3224 1.9604 4.934 2.5664 5.4998 2.8252 C 7.1095 3.4739 8.4587 4.0798 9.808 4.9873 C 10.4177 5.4197 11.0713 6.2419 11.8547 6.459 L 12.7698 6.459 C 14.1629 6.7615 15.7287 6.5453 17.034 6.9341 C 19.3412 7.67 21.43 8.751 23.303 9.9193 C 29.0043 13.5094 33.7065 18.614 36.883 24.7133 C 37.4049 25.708 37.6225 26.6165 38.1025 27.6548 C 39.0176 29.7752 40.1492 31.9372 41.0614 34.0139 C 41.9765 36.047 42.8467 38.1238 44.152 39.8107 C 44.8056 40.7192 47.4162 41.1943 48.5918 41.6703 C 49.463 42.0591 50.8112 42.4062 51.5966 42.8812 C 53.0755 43.7897 54.5555 44.828 55.9486 45.8228 C 56.6442 46.3405 58.8217 47.4215 58.9514 48.2863 Z" stroke="none" fill="#ffffff" stroke-width="0.9725343100576819" fill-opacity="1"/></g><g transform="translate(12.7698 10.6959)"><path d="M 1.7833 0 C 1.0439 0 0.5219 0.0863 0 0.2162 L 0 0.3025 L 0.0858 0.3025 C 0.4341 0.9947 1.0439 1.4708 1.479 2.0758 C 1.8272 2.768 2.1326 3.4602 2.4809 4.1525 L 2.5667 4.0662 C 3.1765 3.6338 3.4818 2.9415 3.4818 1.9032 C 3.2204 1.6007 3.1774 1.2972 2.9599 0.9947 C 2.6984 0.5623 2.1326 0.3461 1.7833 0 Z" stroke="none" fill="#ffffff" stroke-width="0.9725343100576819" fill-opacity="1"/></g></g></g></svg>