<svg width="212" height="222" xmlns="http://www.w3.org/2000/svg" style="vector-effect: non-scaling-stroke;" stroke="null">
 <style stroke="null" type="text/css">.st0{fill:#FFFFFF;fill-opacity:0;}
	.st1{fill:#FFFFFF;}
	.st2{fill:none;}
	.st3{fill:none;stroke:#FFFFFF;stroke-width:3.5433;}
	.st4{fill:none;stroke:#FFFFFF;stroke-width:3.5431;}</style>

 <g stroke="null">
  <title stroke="null">background</title>
  <rect stroke="null" fill="none" id="canvas_background" height="402" width="582" y="-1" x="-1"/>
 </g>
 <g stroke="null">
  <title stroke="null">Layer 1</title>
  <g stroke="null" transform="matrix(1.2257124194196845,0,0,1.2993003551013447,-21.713522373954163,-42.20838384427304) " id="g5189">
   <rect stroke="null" fill="#000000" height="219.9" width="657.4" class="st0" y="8.935802" x="-6.58757" id="rect5183"/>
   <path stroke="null" fill="#000000" d="m280.599715,157.273947l-34.4,0c-3.5,0 -6.9,-0.5 -10.4,-1.5c-6.6,-2.1 -11.8,-6.9 -15.7,-14.3c-3.5,-6.8 -5.2,-14.7 -5.2,-23.7c0,-8.7 1.6,-16.4 4.7,-23.1c3.4,-7.4 8.3,-12.4 14.6,-15.1c4.9,-2.1 9.9,-3.1 15,-3.1l31.2,0l0,15.3l-32.4,0c-5.3,0 -9.1,3 -11.5,8.9c-1.9,4.6 -2.8,10.7 -2.8,18.2c0,6.3 1.2,11.7 3.6,16.1c2.7,5.2 6.6,7.7 11.6,7.7l31.8,-0.1l-0.1,14.7m57.3,0.3l-27.2,0c-6.6,0 -12.4,-2.9 -17.3,-8.8c-4.8,-5.9 -7.2,-12.8 -7.2,-20.5c0,-8.4 2.6,-15.6 7.9,-21.7c5.3,-6.2 11.3,-9.2 17.8,-9.2l25.8,0l0,12.4l-18.9,0c-2.4,0 -4.4,0.2 -6.1,0.7c-1.6,0.4 -3.2,1.2 -4.6,2.4c-2.6,2.3 -3.9,5.4 -3.9,9.4l33.4,0l0,12.5l-33.3,0c0,1.8 0.2,3.4 0.6,4.7c0.4,1.2 1.3,2.5 2.6,3.8c1.3,1.2 2.7,2.1 4.5,2.5s3.9,0.6 6.5,0.6l19.5,0l-0.1,11.2m63.6,-0.3l-15.5,0l0,-39.5c0,-1 -0.2,-1.9 -0.7,-2.7c-0.4,-0.8 -1.1,-1.7 -1.9,-2.4c-1.5,-1.3 -3.2,-2 -5.1,-2l-15.2,0l0,46.5l-15.5,0l0,-59.8l29.6,0c5.3,0 9.1,0.3 11.5,0.9c3.7,0.9 6.7,3 8.9,6.1c2.5,3.7 3.8,7.7 3.8,12.1l0,40.8m44.5,-47.4l-15,0l0,27.2c0,2.5 0.8,4.5 2.5,6.1c1.9,1.6 4.3,2.4 7.4,2.4l4.6,0l0,11.7l-14.4,0c-4.3,0 -8,-1.6 -11,-4.9c-1.8,-1.9 -2.9,-4 -3.5,-6.4c-0.5,-2.3 -0.8,-5 -0.8,-8.2l0,-28l-9.8,0l0,-12.4l9.8,0l0,-21l15.3,0l0,21l15,0l0,12.5m90.8,6.8c0,15.7 -4.2,27 -12.6,33.8c-6.8,5.5 -16.8,8.2 -29.9,8.2c-14.5,0 -25.2,-3.2 -32.1,-9.5c-7.6,-6.9 -11.4,-18.1 -11.4,-33.4c0,-12.6 3.4,-22.4 10.1,-29.4c7.4,-7.6 18.3,-11.4 33,-11.4c16.1,0 27.5,3.7 34.1,11c5.9,6.4 8.8,16.7 8.8,30.7m-19.8,-0.5c0,-7.9 -1.8,-14.3 -5.5,-19c-4.1,-5.2 -10.1,-7.9 -18.2,-7.9c-7.9,0 -13.8,2.8 -17.8,8.4c-3.3,4.7 -5,10.8 -5,18.4c0,8.7 1.3,15.1 4,19.3c3.7,5.8 10.6,8.7 20.6,8.7c8.5,0 14.4,-2.8 17.8,-8.4c2.8,-4.3 4.1,-10.8 4.1,-19.5m109,16c0,7.1 -2.3,13.1 -6.8,17.9c-4.5,4.9 -10.3,7.3 -17.3,7.3l-55.1,-0.1l0,-14.6l45.5,0c3,0 5.6,-0.7 7.7,-2.2c2.4,-1.7 3.6,-4 3.6,-6.9c0,-6.9 -4.7,-10.3 -14,-10.3l-22.9,0c-6.6,0 -12.4,-2.1 -17.4,-6.4c-5,-4.2 -7.5,-9.6 -7.5,-16.2c0,-7.2 2.4,-13.1 7.2,-17.6c4.9,-4.5 11.3,-6.8 19.3,-6.8l52.7,0l0,13.9l-46.5,0c-2.1,0 -4.2,0.9 -6.4,2.8c-2.1,1.8 -3.1,3.9 -3.1,6.4c0,2.8 1,5.1 3,7.1c2.1,1.8 4.6,2.8 7.5,2.8l25.3,0c7.9,0 14,2.1 18.5,6.4c4.5,4 6.7,9.5 6.7,16.5" class="st1" id="text5083-9"/>
   <g stroke="null" transform="matrix(1.0627252,0,0,1.0537063,198.76454,-518.47507) " id="g3664">
    <g stroke="null" transform="matrix(0,-1,1,0,-1934.5199,1337.4805) " id="g12802">
     <g stroke="null" id="g12804">
      <g stroke="null" transform="matrix(1.0666663,0,0,1,-26.935596,-0.000041328125) " id="g12806">
       <path stroke="null" fill="#000000" d="m718.873454,1833.109564l-5.4,5.8l-5.4,-5.8l0,-40.8l-18,0l23.4,-24.9l23,24.9l-17.6,0l0,40.8z" class="st2" id="path12808"/>
      </g>
      <g stroke="null" transform="matrix(1.0722788,0,0,1,-28.850792,-0.000041328125) " id="g12812"/>
     </g>
    </g>
    <g stroke="null" id="g12768">
     <g stroke="null" id="g12770">
      <g stroke="null" transform="matrix(1.0666663,0,0,1,-26.935596,-0.000041328125) " id="g12772">
       <path stroke="null" fill="#000000" d="m-52.434861,590.809096l-5.4,5.8l-5.4,-5.8l0,-40.8l-18,0l23.4,-24.9l23,24.9l-17.6,0l0,40.8z" class="st2" id="path12774"/>
      </g>
      <g stroke="null" transform="matrix(1.0722788,0,0,1,-28.850792,-0.000041328125) " id="g12778"/>
     </g>
    </g>
    <g stroke="null" transform="matrix(0,1,-1,0,2787.8992,696.93451) " id="g12780">
     <g stroke="null" transform="matrix(1.0666663,0,0,1,-26.935596,-0.000041328125) " id="g12782">
      <path stroke="null" fill="#000000" d="m-56.911407,2864.023199l-5.4,5.8l-5.4,-5.8l0,-40.8l-18,0l23.4,-24.9l23,24.9l-17.6,0l0,40.8z" class="st2" id="path12784"/>
     </g>
     <g stroke="null" transform="matrix(1.0722788,0,0,1,-28.850792,-0.000041328125) " id="g12788"/>
    </g>
    <g stroke="null" transform="matrix(-1,0,0,-1,305.51863,2920.6937) " id="g12790">
     <g stroke="null" id="g12792">
      <g stroke="null" transform="matrix(1.0666663,0,0,1,-26.935596,-0.000041328125) " id="g12794">
       <path stroke="null" fill="#000000" d="m400.308798,2304.598264l-5.4,5.8l-5.4,-5.8l0,-40.8l-18,0l23.4,-24.9l23,24.9l-17.6,0l0,40.8z" class="st2" id="path12796"/>
      </g>
      <g stroke="null" transform="matrix(1.0722788,0,0,1,-28.850792,-0.000041328125) " id="g12800"/>
     </g>
    </g>
    <g stroke="null" id="g12742">
     <path stroke="null" fill="#000000" d="m-143.623004,548.491677l49.6,0l0,49.6l-49.6,0l0,-49.6z" class="st3" id="rect12744"/>
     <path stroke="null" fill="#000000" d="m-83.423004,548.491677l49.6,0l0,49.6l-49.6,0l0,-49.6z" class="st3" id="rect12746"/>
     <path stroke="null" fill="#000000" d="m-83.423004,608.691677l49.6,0l0,49.6l-49.6,0l0,-49.6z" class="st3" id="rect12748"/>
     <path stroke="null" fill="#000000" d="m-143.623004,608.691677l49.6,0l0,49.6l-49.6,0l0,-49.6z" class="st3" id="rect12750"/>
    </g>
    <path stroke="null" fill="#000000" d="m-166.423199,603.434499l35.1,-35.1l35.1,35.1l-35.1,35.1l-35.1,-35.1z" class="st3" id="rect12760"/>
    <path stroke="null" fill="#000000" d="m-123.823199,560.834499l35.1,-35.1l35.1,35.1l-35.1,35.1l-35.1,-35.1z" class="st4" id="rect12762"/>
    <path stroke="null" fill="#000000" d="m-81.223199,603.434499l35.1,-35.1l35.1,35.1l-35.1,35.1c0,0 -35.1,-35.1 -35.1,-35.1z" class="st3" id="rect12764"/>
    <path stroke="null" fill="#000000" d="m-123.823199,646.034499l35.1,-35.1l35.1,35.1l-35.1,35.1l-35.1,-35.1z" class="st3" id="rect12766"/>
   </g>
  </g>
 </g>
</svg>