<svg width="24" height="24" xmlns="http://www.w3.org/2000/svg">
 <title/>

 <g>
  <title>background</title>
  <rect fill="none" id="canvas_background" height="402" width="582" y="-1" x="-1"/>
 </g>
 <g>
  <title>Layer 1</title>
  <circle fill-opacity="0" fill="#000000" stroke="#ffffff" stroke-linecap="round" stroke-linejoin="round" r="0.5" id="_Path_" cy="16" cx="5.04"/>
  <rect fill-opacity="0" fill="#000000" stroke="#ffffff" stroke-linecap="round" stroke-linejoin="round" y="9.5" x="1.5" width="3" id="_Rectangle_" height="3"/>
  <rect fill-opacity="0" fill="#000000" stroke="#ffffff" stroke-linecap="round" stroke-linejoin="round" y="9.5" x="4.5" width="3" id="_Rectangle_2" height="3"/>
  <rect fill-opacity="0" fill="#000000" stroke="#ffffff" stroke-linecap="round" stroke-linejoin="round" y="9.5" x="7.5" width="3" id="_Rectangle_3" height="3"/>
  <rect fill-opacity="0" fill="#000000" stroke="#ffffff" stroke-linecap="round" stroke-linejoin="round" y="9.5" x="10.5" width="3" id="_Rectangle_4" height="3"/>
  <rect fill-opacity="0" fill="#000000" stroke="#ffffff" stroke-linecap="round" stroke-linejoin="round" y="6.5" x="4.5" width="3" id="_Rectangle_5" height="3"/>
  <rect fill-opacity="0" fill="#000000" stroke="#ffffff" stroke-linecap="round" stroke-linejoin="round" y="6.5" x="7.5" width="3" id="_Rectangle_6" height="3"/>
  <rect fill-opacity="0" fill="#000000" stroke="#ffffff" stroke-linecap="round" stroke-linejoin="round" y="6.5" x="10.5" width="3" id="_Rectangle_7" height="3"/>
  <rect fill-opacity="0" fill="#000000" stroke="#ffffff" stroke-linecap="round" stroke-linejoin="round" y="3.5" x="10.5" width="3" id="_Rectangle_8" height="3"/>
  <rect fill-opacity="0" fill="#000000" stroke="#ffffff" stroke-linecap="round" stroke-linejoin="round" y="9.5" x="13.5" width="3" id="_Rectangle_9" height="3"/>
  <path fill-opacity="0" fill="#000000" stroke="#ffffff" stroke-linecap="round" stroke-linejoin="round" id="_Path_2" d="m23.5,11.5s-1.75,-1.12 -3,-0.5a3.45,3.45 0 0 0 -1.5,-2.5a3.64,3.64 0 0 0 -0.58,2.88a1,1 0 0 1 -1,1.12l-16.92,0c0,6.25 3.83,8 7.5,8a13.76,13.76 0 0 0 12.06,-7a4.68,4.68 0 0 0 3.44,-2z"/>
 </g>
</svg>